<svg width="156" height="40" viewBox="0 0 156 40" fill="none" xmlns="http://www.w3.org/2000/svg">
<path d="M0.386 19V1.18H9.23V4.172H4.324V8.704H5.16C6.28933 8.704 7.24267 8.88733 8.02 9.254C8.812 9.62067 9.41333 10.1853 9.824 10.948C10.2347 11.696 10.44 12.664 10.44 13.852C10.44 14.9373 10.2933 15.8173 10 16.492C9.72133 17.1667 9.32533 17.6873 8.812 18.054C8.29867 18.4207 7.69733 18.67 7.008 18.802C6.33333 18.934 5.6 19 4.808 19H0.386ZM4.324 16.426H4.83C5.32867 16.426 5.72467 16.3307 6.018 16.14C6.31133 15.9493 6.51667 15.656 6.634 15.26C6.75133 14.864 6.80267 14.3653 6.788 13.764C6.77333 13.104 6.634 12.554 6.37 12.114C6.106 11.6593 5.578 11.432 4.786 11.432H4.324V16.426ZM17.6056 19.264C16.271 19.264 15.215 19.0293 14.4376 18.56C13.6603 18.0907 13.103 17.416 12.7656 16.536C12.4283 15.656 12.2596 14.6073 12.2596 13.39V6.768C12.2596 5.536 12.4283 4.48733 12.7656 3.622C13.103 2.75667 13.6603 2.09667 14.4376 1.642C15.215 1.17267 16.271 0.937999 17.6056 0.937999C18.955 0.937999 20.0183 1.17267 20.7956 1.642C21.5876 2.09667 22.1523 2.75667 22.4896 3.622C22.827 4.48733 22.9956 5.536 22.9956 6.768V13.39C22.9956 14.6073 22.827 15.656 22.4896 16.536C22.1523 17.416 21.5876 18.0907 20.7956 18.56C20.0183 19.0293 18.955 19.264 17.6056 19.264ZM17.6056 16.47C18.0163 16.47 18.317 16.3673 18.5076 16.162C18.6983 15.9567 18.823 15.6927 18.8816 15.37C18.9403 15.0473 18.9696 14.7173 18.9696 14.38V5.8C18.9696 5.448 18.9403 5.118 18.8816 4.81C18.823 4.48733 18.6983 4.22333 18.5076 4.018C18.317 3.81267 18.0163 3.71 17.6056 3.71C17.2243 3.71 16.9383 3.81267 16.7476 4.018C16.557 4.22333 16.4323 4.48733 16.3736 4.81C16.315 5.118 16.2856 5.448 16.2856 5.8V14.38C16.2856 14.7173 16.3076 15.0473 16.3516 15.37C16.4103 15.6927 16.5276 15.9567 16.7036 16.162C16.8943 16.3673 17.195 16.47 17.6056 16.47ZM24.2263 19V16.228C24.7249 16.228 25.1283 16.1987 25.4363 16.14C25.7443 16.0667 25.9863 15.9053 26.1623 15.656C26.3383 15.4067 26.4776 15.0253 26.5803 14.512C26.6829 13.9987 26.7636 13.3093 26.8223 12.444C26.8956 11.5787 26.9836 10.4787 27.0863 9.144L27.6583 1.18H37.0963V19H33.1803V4.194H31.2223L30.8703 9.892C30.7676 11.3587 30.6649 12.6273 30.5623 13.698C30.4596 14.754 30.2909 15.6413 30.0563 16.36C29.8363 17.0787 29.4989 17.6433 29.0443 18.054C28.6043 18.45 27.9956 18.7213 27.2183 18.868C26.4409 19.0147 25.4436 19.0587 24.2263 19ZM39.8958 19V1.18H43.8338V8.704H44.7138C45.8284 8.704 46.7744 8.88733 47.5518 9.254C48.3291 9.62067 48.9231 10.1853 49.3338 10.948C49.7444 11.696 49.9498 12.664 49.9498 13.852C49.9498 14.9373 49.8031 15.8173 49.5098 16.492C49.2311 17.1667 48.8351 17.6873 48.3218 18.054C47.8084 18.4207 47.2071 18.67 46.5178 18.802C45.8431 18.934 45.1171 19 44.3398 19H39.8958ZM43.8338 16.426H44.3618C44.8604 16.426 45.2491 16.3307 45.5278 16.14C45.8211 15.9493 46.0264 15.656 46.1438 15.26C46.2758 14.864 46.3344 14.3653 46.3198 13.764C46.3051 13.104 46.1658 12.554 45.9018 12.114C45.6524 11.6593 45.1244 11.432 44.3178 11.432H43.8338V16.426ZM52.1204 19V1.18H55.8384V16.184H58.0164V1.18H61.7124V16.184H63.8024V1.18H67.4984V19H52.1204ZM69.3507 19L72.7167 1.18H77.2047L80.5267 19H76.8967L76.3027 15.238H73.6847L73.0687 19H69.3507ZM74.0367 12.884H75.9287L74.9827 5.932L74.0367 12.884ZM81.2259 19L84.6139 11.08C83.9392 10.6693 83.3819 10.068 82.9419 9.276C82.5165 8.484 82.3039 7.56 82.3039 6.504C82.3039 5.12533 82.5459 4.05467 83.0299 3.292C83.5139 2.51467 84.2032 1.972 85.0979 1.664C86.0072 1.34133 87.0925 1.18 88.3539 1.18H92.9299V19H89.0139V11.96H88.3099C88.2952 11.96 88.2585 11.96 88.1999 11.96C88.1412 11.96 88.0972 11.96 88.0679 11.96L85.4719 19H81.2259ZM88.4419 9.188H89.0139V3.886H88.3979C87.5912 3.886 86.9825 4.11333 86.5719 4.568C86.1759 5.008 85.9779 5.66067 85.9779 6.526C85.9779 7.28867 86.1539 7.92667 86.5059 8.44C86.8579 8.93867 87.5032 9.188 88.4419 9.188ZM101.363 19V1.18H104.465V11.388L109.019 1.18H111.571V19H108.403V8.616L103.761 19H101.363ZM114.339 19V1.18H122.611V4.106H118.277V19H114.339ZM124.349 19V1.18H130.333C131.404 1.18 132.284 1.38533 132.973 1.796C133.663 2.192 134.176 2.77867 134.513 3.556C134.851 4.31867 135.019 5.25 135.019 6.35C135.019 7.72867 134.792 8.78467 134.337 9.518C133.883 10.2367 133.267 10.7353 132.489 11.014C131.712 11.2927 130.839 11.432 129.871 11.432H128.287V19H124.349ZM128.287 8.682H129.607C130.091 8.682 130.458 8.594 130.707 8.418C130.957 8.242 131.118 7.978 131.191 7.626C131.279 7.274 131.323 6.82667 131.323 6.284C131.323 5.82933 131.287 5.43333 131.213 5.096C131.155 4.744 131.001 4.46533 130.751 4.26C130.502 4.05467 130.113 3.952 129.585 3.952H128.287V8.682ZM135.007 19L138.373 1.18H142.861L146.183 19H142.553L141.959 15.238H139.341L138.725 19H135.007ZM139.693 12.884H141.585L140.639 5.932L139.693 12.884ZM0.32 39V21.18H4.962C5.72467 21.18 6.44333 21.2387 7.118 21.356C7.80733 21.4733 8.416 21.7007 8.944 22.038C9.472 22.3607 9.88267 22.83 10.176 23.446C10.484 24.0473 10.638 24.8467 10.638 25.844C10.638 26.5627 10.528 27.1713 10.308 27.67C10.1027 28.154 9.802 28.5427 9.406 28.836C9.02467 29.1293 8.56267 29.3273 8.02 29.43C8.70933 29.518 9.28867 29.7453 9.758 30.112C10.2273 30.464 10.5793 30.9407 10.814 31.542C11.0633 32.1433 11.188 32.8693 11.188 33.72C11.188 34.644 11.0633 35.4433 10.814 36.118C10.5793 36.778 10.2347 37.3207 9.78 37.746C9.32533 38.1713 8.76067 38.4867 8.086 38.692C7.426 38.8973 6.66333 39 5.798 39H0.32ZM4.258 36.25H5.094C5.95933 36.25 6.55333 36.03 6.876 35.59C7.21333 35.15 7.382 34.5047 7.382 33.654C7.382 32.9793 7.30867 32.444 7.162 32.048C7.01533 31.652 6.77333 31.366 6.436 31.19C6.09867 30.9993 5.644 30.904 5.072 30.904H4.258V36.25ZM4.258 28.308H5.028C5.62933 28.308 6.084 28.22 6.392 28.044C6.7 27.8533 6.90533 27.582 7.008 27.23C7.12533 26.878 7.184 26.4527 7.184 25.954C7.184 25.4847 7.096 25.096 6.92 24.788C6.75867 24.4653 6.50933 24.2233 6.172 24.062C5.84933 23.9007 5.43867 23.82 4.94 23.82H4.258V28.308ZM18.9485 39V21.18H22.0505V31.388L26.6045 21.18H29.1565V39H25.9885V28.616L21.3465 39H18.9485ZM31.9251 39V21.18H35.8631V28.396H38.6351V21.18H42.5731V39H38.6351V31.212H35.8631V39H31.9251ZM50.7208 39.638V36.976C50.5008 36.9907 50.2735 37.0053 50.0388 37.02C49.8188 37.0347 49.5915 37.042 49.3568 37.042C48.5501 37.042 47.8095 36.8733 47.1348 36.536C46.4748 36.1987 45.9468 35.7073 45.5508 35.062C45.1695 34.402 44.9788 33.6027 44.9788 32.664V27.296C44.9788 26.4453 45.1768 25.69 45.5728 25.03C45.9835 24.37 46.5481 23.8567 47.2668 23.49C48.0001 23.1087 48.8361 22.918 49.7748 22.918C49.9361 22.918 50.0975 22.9253 50.2588 22.94C50.4348 22.94 50.5888 22.9473 50.7208 22.962V20.146H53.8888V22.962C54.0208 22.9473 54.1601 22.94 54.3068 22.94C54.4535 22.9253 54.6075 22.918 54.7688 22.918C55.7515 22.918 56.6021 23.1087 57.3208 23.49C58.0541 23.8567 58.6188 24.37 59.0148 25.03C59.4255 25.69 59.6308 26.4453 59.6308 27.296V32.686C59.6308 33.6247 59.4328 34.424 59.0368 35.084C58.6555 35.7293 58.1421 36.2207 57.4968 36.558C56.8661 36.8953 56.1621 37.064 55.3848 37.064C55.1355 37.064 54.8861 37.0567 54.6368 37.042C54.4021 37.0273 54.1528 37.0127 53.8888 36.998V39.638H50.7208ZM50.2808 34.6C50.3541 34.6 50.4348 34.6 50.5228 34.6C50.6108 34.5853 50.6768 34.5707 50.7208 34.556V25.316C50.6621 25.3013 50.5815 25.294 50.4788 25.294C50.3908 25.2793 50.3101 25.272 50.2368 25.272C49.8701 25.272 49.5548 25.3527 49.2908 25.514C49.0268 25.6753 48.8215 25.9027 48.6748 26.196C48.5281 26.4893 48.4548 26.8413 48.4548 27.252V32.73C48.4548 33.082 48.5135 33.3973 48.6308 33.676C48.7481 33.9547 48.9388 34.182 49.2028 34.358C49.4668 34.5193 49.8261 34.6 50.2808 34.6ZM54.3508 34.578C54.7761 34.578 55.1208 34.5047 55.3848 34.358C55.6488 34.1967 55.8395 33.9767 55.9568 33.698C56.0888 33.4193 56.1548 33.0967 56.1548 32.73V27.252C56.1548 26.812 56.0888 26.4453 55.9568 26.152C55.8248 25.8587 55.6341 25.6387 55.3848 25.492C55.1501 25.3453 54.8641 25.272 54.5268 25.272C54.4095 25.272 54.2995 25.2793 54.1968 25.294C54.0941 25.294 53.9915 25.3013 53.8888 25.316V34.534C53.9621 34.5487 54.0355 34.5633 54.1088 34.578C54.1968 34.578 54.2775 34.578 54.3508 34.578ZM67.0842 39.264C65.7495 39.264 64.6935 39.0293 63.9162 38.56C63.1388 38.0907 62.5815 37.416 62.2442 36.536C61.9068 35.656 61.7382 34.6073 61.7382 33.39V26.768C61.7382 25.536 61.9068 24.4873 62.2442 23.622C62.5815 22.7567 63.1388 22.0967 63.9162 21.642C64.6935 21.1727 65.7495 20.938 67.0842 20.938C68.4335 20.938 69.4968 21.1727 70.2742 21.642C71.0662 22.0967 71.6308 22.7567 71.9682 23.622C72.3055 24.4873 72.4742 25.536 72.4742 26.768V33.39C72.4742 34.6073 72.3055 35.656 71.9682 36.536C71.6308 37.416 71.0662 38.0907 70.2742 38.56C69.4968 39.0293 68.4335 39.264 67.0842 39.264ZM67.0842 36.47C67.4948 36.47 67.7955 36.3673 67.9862 36.162C68.1768 35.9567 68.3015 35.6927 68.3602 35.37C68.4188 35.0473 68.4482 34.7173 68.4482 34.38V25.8C68.4482 25.448 68.4188 25.118 68.3602 24.81C68.3015 24.4873 68.1768 24.2233 67.9862 24.018C67.7955 23.8127 67.4948 23.71 67.0842 23.71C66.7028 23.71 66.4168 23.8127 66.2262 24.018C66.0355 24.2233 65.9108 24.4873 65.8522 24.81C65.7935 25.118 65.7642 25.448 65.7642 25.8V34.38C65.7642 34.7173 65.7862 35.0473 65.8302 35.37C65.8888 35.6927 66.0062 35.9567 66.1822 36.162C66.3728 36.3673 66.6735 36.47 67.0842 36.47ZM74.9368 39V21.18H83.7808V24.172H78.8748V28.704H79.7108C80.8401 28.704 81.7934 28.8873 82.5708 29.254C83.3628 29.6207 83.9641 30.1853 84.3748 30.948C84.7854 31.696 84.9908 32.664 84.9908 33.852C84.9908 34.9373 84.8441 35.8173 84.5508 36.492C84.2721 37.1667 83.8761 37.6873 83.3628 38.054C82.8494 38.4207 82.2481 38.67 81.5588 38.802C80.8841 38.934 80.1508 39 79.3588 39H74.9368ZM78.8748 36.426H79.3808C79.8794 36.426 80.2754 36.3307 80.5688 36.14C80.8621 35.9493 81.0674 35.656 81.1848 35.26C81.3021 34.864 81.3534 34.3653 81.3388 33.764C81.3241 33.104 81.1848 32.554 80.9208 32.114C80.6568 31.6593 80.1288 31.432 79.3368 31.432H78.8748V36.426ZM87.1184 39V21.18H90.2204V31.388L94.7744 21.18H97.3264V39H94.1584V28.616L89.5164 39H87.1184ZM104.561 39.33C103.314 39.33 102.332 39.0953 101.613 38.626C100.909 38.1567 100.403 37.504 100.095 36.668C99.8017 35.8173 99.655 34.842 99.655 33.742V33.104H103.351C103.351 33.1333 103.351 33.2213 103.351 33.368C103.351 33.5147 103.351 33.654 103.351 33.786C103.351 34.666 103.439 35.2967 103.615 35.678C103.791 36.0447 104.128 36.228 104.627 36.228C104.964 36.228 105.214 36.14 105.375 35.964C105.551 35.788 105.668 35.5313 105.727 35.194C105.8 34.842 105.837 34.402 105.837 33.874C105.837 32.9793 105.705 32.3047 105.441 31.85C105.177 31.3807 104.627 31.1387 103.791 31.124C103.776 31.1093 103.71 31.102 103.593 31.102C103.49 31.102 103.366 31.102 103.219 31.102C103.072 31.102 102.933 31.102 102.801 31.102V28.704C102.904 28.704 103.006 28.704 103.109 28.704C103.212 28.704 103.314 28.704 103.417 28.704C103.52 28.704 103.615 28.704 103.703 28.704C104.568 28.6893 105.14 28.4547 105.419 28C105.698 27.5453 105.837 26.8707 105.837 25.976C105.837 25.2867 105.727 24.7587 105.507 24.392C105.302 24.0253 104.95 23.842 104.451 23.842C103.967 23.842 103.63 24.04 103.439 24.436C103.263 24.8173 103.168 25.3307 103.153 25.976C103.153 26.0053 103.153 26.13 103.153 26.35C103.153 26.5553 103.153 26.7607 103.153 26.966H99.457V25.888C99.457 24.8173 99.6623 23.9153 100.073 23.182C100.498 22.434 101.085 21.8693 101.833 21.488C102.581 21.1067 103.461 20.916 104.473 20.916C105.514 20.916 106.402 21.0993 107.135 21.466C107.883 21.8327 108.455 22.3753 108.851 23.094C109.247 23.798 109.445 24.678 109.445 25.734C109.445 26.7753 109.232 27.6553 108.807 28.374C108.382 29.078 107.868 29.5107 107.267 29.672C107.678 29.8333 108.044 30.0753 108.367 30.398C108.704 30.706 108.968 31.1313 109.159 31.674C109.35 32.2167 109.445 32.9133 109.445 33.764C109.445 34.8493 109.284 35.8173 108.961 36.668C108.653 37.504 108.14 38.1567 107.421 38.626C106.702 39.0953 105.749 39.33 104.561 39.33ZM111.675 39V21.18H115.613V28.396H118.385V21.18H122.323V39H118.385V31.212H115.613V39H111.675ZM125.037 39V21.18H133.045V23.864H128.975V28.286H132.077V31.014H128.975V36.338H133.089V39H125.037ZM139.981 39.264C138.631 39.264 137.561 39.022 136.769 38.538C135.991 38.0393 135.441 37.35 135.119 36.47C134.796 35.5753 134.635 34.5267 134.635 33.324V26.9C134.635 25.668 134.796 24.612 135.119 23.732C135.441 22.8373 135.991 22.148 136.769 21.664C137.561 21.18 138.631 20.938 139.981 20.938C141.301 20.938 142.327 21.158 143.061 21.598C143.809 22.0233 144.337 22.6247 144.645 23.402C144.953 24.1793 145.107 25.074 145.107 26.086V27.626H141.257V25.844C141.257 25.492 141.235 25.1547 141.191 24.832C141.161 24.5093 141.059 24.2453 140.883 24.04C140.707 23.82 140.406 23.71 139.981 23.71C139.57 23.71 139.262 23.82 139.057 24.04C138.866 24.26 138.741 24.5387 138.683 24.876C138.639 25.1987 138.617 25.5433 138.617 25.91V34.292C138.617 34.688 138.646 35.0547 138.705 35.392C138.778 35.7147 138.91 35.9787 139.101 36.184C139.306 36.3747 139.599 36.47 139.981 36.47C140.391 36.47 140.685 36.3673 140.861 36.162C141.037 35.942 141.147 35.6633 141.191 35.326C141.235 34.9887 141.257 34.644 141.257 34.292V32.422H145.107V33.962C145.107 34.974 144.953 35.8833 144.645 36.69C144.351 37.482 143.831 38.1127 143.083 38.582C142.349 39.0367 141.315 39.264 139.981 39.264ZM147.273 39V21.18H155.281V23.864H151.211V28.286H154.313V31.014H151.211V36.338H155.325V39H147.273Z" fill="white"/>
</svg>
